<?xml version="1.0" encoding="UTF-8" standalone="no" ?>
<!DOCTYPE svg PUBLIC "-//W3C//DTD SVG 1.1//EN" "http://www.w3.org/Graphics/SVG/1.1/DTD/svg11.dtd">
<svg xmlns="http://www.w3.org/2000/svg" xmlns:xlink="http://www.w3.org/1999/xlink" version="1.1" width="1080" height="1080" viewBox="0 0 1080 1080" xml:space="preserve">
<desc>Created with Fabric.js 5.2.4</desc>
<defs>
</defs>
<g transform="matrix(1 0 0 1 540 540)" id="204d1b3c-fab5-42ef-97ec-ca6508b3075f"  >
<rect style="stroke: none; stroke-width: 1; stroke-dasharray: none; stroke-linecap: butt; stroke-dashoffset: 0; stroke-linejoin: miter; stroke-miterlimit: 4; fill: rgb(255,255,255); fill-rule: nonzero; opacity: 1; visibility: hidden;" vector-effect="non-scaling-stroke"  x="-540" y="-540" rx="0" ry="0" width="1080" height="1080" />
</g>
<g transform="matrix(1 0 0 1 540 540)" id="784d41ab-6ed8-438b-9be1-d5c966ae038b"  >
</g>
<g transform="matrix(13.46 0 0 13.47 540 540)"  >
<g style="" vector-effect="non-scaling-stroke"   >
		<g transform="matrix(1 0 0 1 0.62 0.46)"  >
<polygon style="stroke: none; stroke-width: 1; stroke-dasharray: none; stroke-linecap: butt; stroke-dashoffset: 0; stroke-linejoin: miter; stroke-miterlimit: 4; fill: rgb(231,223,221); fill-rule: nonzero; opacity: 1;" vector-effect="non-scaling-stroke"  points="22.56,11.37 19.82,11.37 19.82,3.85 -19.87,3.85 -19.87,11.37 -22.56,11.37 -22.45,0.94 -1.48,0.94 -1.69,-11.37 1.8,-11.37 1.75,0.94 22.56,0.94 " />
</g>
		<g transform="matrix(1 0 0 1 -0.3 -22.96)"  >
<rect style="stroke: none; stroke-width: 1; stroke-dasharray: none; stroke-linecap: butt; stroke-dashoffset: 0; stroke-linejoin: miter; stroke-miterlimit: 4; fill: rgb(231,223,221); fill-rule: nonzero; opacity: 1;" vector-effect="non-scaling-stroke"  x="-21.806" y="-13.229" rx="0" ry="0" width="43.612" height="26.458" />
</g>
		<g transform="matrix(1 0 0 1 -20.84 23.61)"  >
<rect style="stroke: none; stroke-width: 1; stroke-dasharray: none; stroke-linecap: butt; stroke-dashoffset: 0; stroke-linejoin: miter; stroke-miterlimit: 4; fill: rgb(231,223,221); fill-rule: nonzero; opacity: 1;" vector-effect="non-scaling-stroke"  x="-15.4615" y="-12.5845" rx="0" ry="0" width="30.923" height="25.169" />
</g>
		<g transform="matrix(1 0 0 1 20.84 23.61)"  >
<rect style="stroke: none; stroke-width: 1; stroke-dasharray: none; stroke-linecap: butt; stroke-dashoffset: 0; stroke-linejoin: miter; stroke-miterlimit: 4; fill: rgb(231,223,221); fill-rule: nonzero; opacity: 1;" vector-effect="non-scaling-stroke"  x="-15.463" y="-12.5845" rx="0" ry="0" width="30.926" height="25.169" />
</g>
</g>
</g>
<g transform="matrix(NaN NaN NaN NaN 0 0)"  >
<g style=""   >
</g>
</g>
<g transform="matrix(NaN NaN NaN NaN 0 0)"  >
<g style=""   >
</g>
</g>
<g transform="matrix(1 0 0 1 540 226.32)" style="" id="23bad910-fa55-4281-8068-e928e3415c3b"  >
		<text xml:space="preserve" font-family="Raleway" font-size="200" font-style="normal" font-weight="900" style="stroke: none; stroke-width: 1; stroke-dasharray: none; stroke-linecap: butt; stroke-dashoffset: 0; stroke-linejoin: miter; stroke-miterlimit: 4; fill: rgb(0,0,0); fill-rule: nonzero; opacity: 1; white-space: pre;" ><tspan x="-159" y="62.83" >B R</tspan></text>
</g>
<g transform="matrix(1 0 0 1 259.01 857.44)" style="" id="431dd976-2c0e-4aac-8bcd-b991918ad938"  >
		<text xml:space="preserve" font-family="Alegreya" font-size="158" font-style="normal" font-weight="900" style="stroke: none; stroke-width: 1; stroke-dasharray: none; stroke-linecap: butt; stroke-dashoffset: 0; stroke-linejoin: miter; stroke-miterlimit: 4; fill: rgb(0,0,0); fill-rule: nonzero; opacity: 1; white-space: pre;" ></text>
</g>
<g transform="matrix(1 0 0 1 261.34 858.48)" style="" id="99a73159-6699-4114-b099-37b794d87ac8"  >
		<text xml:space="preserve" font-family="Raleway" font-size="200" font-style="normal" font-weight="900" style="stroke: none; stroke-width: 1; stroke-dasharray: none; stroke-linecap: butt; stroke-dashoffset: 0; stroke-linejoin: miter; stroke-miterlimit: 4; fill: rgb(0,0,0); fill-rule: nonzero; opacity: 1; white-space: pre;" ><tspan x="-105.7" y="62.83" >W</tspan></text>
</g>
<g transform="matrix(1 0 0 1 834.51 858.48)" style="" id="c36a8f99-eb90-4836-8fe6-a3635186887a"  >
		<text xml:space="preserve" font-family="Raleway" font-size="200" font-style="normal" font-weight="900" style="stroke: none; stroke-width: 1; stroke-dasharray: none; stroke-linecap: butt; stroke-dashoffset: 0; stroke-linejoin: miter; stroke-miterlimit: 4; fill: rgb(0,0,0); fill-rule: nonzero; opacity: 1; white-space: pre;" ><tspan x="-71.6" y="62.83" >D</tspan></text>
</g>
</svg>